<svg width="140" height="131" viewBox="0 0 140 131" fill="none" xmlns="http://www.w3.org/2000/svg">
<g clip-path="url(#clip0_4304_37953)">
<path d="M88.7429 29.4615H51.2884C50.4349 29.4625 49.6166 29.7903 49.0131 30.373C48.4096 30.9557 48.0701 31.7458 48.069 32.5698V112.941L47.6398 113.067L38.4516 115.784C38.0161 115.912 37.5458 115.868 37.1438 115.662C36.7418 115.455 36.4411 115.104 36.3075 114.683L8.9769 28.4896C8.84389 28.0692 8.88923 27.615 9.10293 27.2268C9.31664 26.8386 9.68123 26.5482 10.1166 26.4195L24.2755 22.2336L65.3229 10.1029L79.4818 5.91699C79.6972 5.85297 79.9237 5.83059 80.1481 5.85115C80.3726 5.87171 80.5906 5.9348 80.7897 6.03682C80.9889 6.13883 81.1653 6.27775 81.3088 6.44565C81.4522 6.61354 81.56 6.80711 81.6259 7.01527L88.612 29.0471L88.7429 29.4615Z" fill="#F2F2F2"/>
<path d="M96.9159 29.0453L88.4961 2.49198C88.356 2.04955 88.127 1.63811 87.8222 1.28117C87.5173 0.924223 87.1426 0.628774 86.7195 0.4117C86.2963 0.194627 85.833 0.0601827 85.356 0.0160551C84.879 -0.0280724 84.3977 0.0189815 83.9396 0.154523L64.0329 6.03754L22.9878 18.1704L3.08117 24.0555C2.15641 24.3296 1.3821 24.9468 0.928196 25.7716C0.47429 26.5964 0.377874 27.5614 0.660115 28.4548L29.4373 119.203C29.6666 119.924 30.1292 120.556 30.7573 121.004C31.3854 121.453 32.1459 121.695 32.9272 121.696C33.2888 121.696 33.6483 121.644 33.9938 121.541L47.6398 117.508L48.069 117.38V116.947L47.6398 117.073L33.8672 121.145C33.0509 121.385 32.1693 121.303 31.4157 120.917C30.6621 120.53 30.098 119.871 29.8472 119.083L1.07229 28.3325C0.948037 27.9423 0.904733 27.5322 0.944852 27.1258C0.984971 26.7194 1.10772 26.3247 1.30608 25.9642C1.50445 25.6036 1.77452 25.2844 2.10084 25.0248C2.42716 24.7652 2.80331 24.5703 3.20776 24.4512L23.1144 18.5662L64.1596 6.43541L84.0663 0.55032C84.373 0.45993 84.692 0.413842 85.0127 0.413553C85.701 0.415045 86.3708 0.629303 86.9239 1.02494C87.477 1.42059 87.8843 1.97682 88.0862 2.61217L96.4673 29.0454L96.6004 29.4598H97.0469L96.9159 29.0453Z" fill="#3F3D56"/>
<path d="M26.8306 26.4886C26.4169 26.4883 26.0142 26.3601 25.6816 26.1226C25.349 25.8852 25.1039 25.5511 24.9824 25.1693L22.2179 16.4511C22.1436 16.217 22.1178 15.9709 22.1421 15.7271C22.1663 15.4833 22.24 15.2465 22.359 15.0302C22.478 14.8139 22.64 14.6224 22.8357 14.4665C23.0313 14.3107 23.2569 14.1936 23.4995 14.1219L61.2607 2.96019C61.7506 2.81587 62.2797 2.86509 62.732 3.09705C63.1843 3.32901 63.5228 3.72477 63.6733 4.19745L66.4377 12.9157C66.5871 13.3887 66.5361 13.8995 66.2958 14.3362C66.0556 14.7729 65.6458 15.0997 65.1563 15.245L27.3949 26.4068C27.2121 26.461 27.0219 26.4885 26.8306 26.4886Z" fill="#8F9BB3"/>
<path d="M41.312 9.3162C43.6827 9.3162 45.6045 7.46068 45.6045 5.17177C45.6045 2.88287 43.6827 1.02734 41.312 1.02734C38.9413 1.02734 37.0195 2.88287 37.0195 5.17177C37.0195 7.46068 38.9413 9.3162 41.312 9.3162Z" fill="#8F9BB3"/>
<path d="M41.312 7.79564C42.8132 7.79564 44.0302 6.62066 44.0302 5.17126C44.0302 3.72185 42.8132 2.54688 41.312 2.54688C39.8108 2.54688 38.5939 3.72185 38.5939 5.17126C38.5939 6.62066 39.8108 7.79564 41.312 7.79564Z" fill="white"/>
<path d="M129.842 120.639H57.298C56.8144 120.638 56.3506 120.453 56.0086 120.122C55.6666 119.792 55.4743 119.344 55.4737 118.878V34.9528C55.4742 34.4858 55.6666 34.0381 56.0086 33.7079C56.3506 33.3777 56.8143 33.1919 57.298 33.1914H129.842C130.326 33.1919 130.789 33.3777 131.131 33.7079C131.473 34.0381 131.666 34.4858 131.666 34.9528V118.878C131.666 119.344 131.473 119.792 131.131 120.122C130.789 120.453 130.326 120.638 129.842 120.639Z" fill="#F2F2F2"/>
<path d="M96.4673 29.0469H51.2884C50.3212 29.0482 49.3939 29.4198 48.7099 30.0801C48.026 30.7405 47.6411 31.6358 47.6398 32.5696V117.075L48.069 116.948V32.5696C48.0701 31.7456 48.4096 30.9555 49.0131 30.3728C49.6166 29.7901 50.4349 29.4623 51.2884 29.4613H96.6004L96.4673 29.0469ZM135.851 29.0469H51.2884C50.3212 29.0482 49.3939 29.4198 48.7099 30.0801C48.026 30.7405 47.6411 31.6358 47.6398 32.5696V127.477C47.6411 128.411 48.026 129.306 48.7099 129.967C49.3939 130.627 50.3212 130.999 51.2884 131H135.851C136.819 130.999 137.746 130.627 138.43 129.967C139.114 129.306 139.499 128.411 139.5 127.477V32.5696C139.499 31.6358 139.114 30.7405 138.43 30.0801C137.746 29.4198 136.819 29.0482 135.851 29.0469ZM139.071 127.477C139.07 128.301 138.73 129.091 138.127 129.674C137.523 130.257 136.705 130.584 135.851 130.585H51.2884C50.4349 130.584 49.6166 130.257 49.0131 129.674C48.4096 129.091 48.0701 128.301 48.069 127.477V32.5696C48.0701 31.7456 48.4096 30.9555 49.0131 30.3728C49.6166 29.7901 50.4349 29.4623 51.2884 29.4613H135.851C136.705 29.4623 137.523 29.7901 138.127 30.3728C138.73 30.9555 139.07 31.7456 139.071 32.5696V127.477Z" fill="#3F3D56"/>
<path d="M113.316 38.1641H73.8243C73.3122 38.1636 72.8212 37.9669 72.459 37.6173C72.0969 37.2676 71.8932 36.7936 71.8926 36.2991V27.1814C71.8932 26.6869 72.0969 26.2129 72.459 25.8633C72.8212 25.5136 73.3122 25.317 73.8243 25.3164H113.316C113.828 25.317 114.319 25.5136 114.681 25.8633C115.043 26.2129 115.247 26.6869 115.247 27.1814V36.2991C115.247 36.7936 115.043 37.2676 114.681 37.6173C114.319 37.9669 113.828 38.1636 113.316 38.1641Z" fill="#8F9BB3"/>
<path d="M93.5699 25.9373C95.9406 25.9373 97.8624 24.0818 97.8624 21.7929C97.8624 19.504 95.9406 17.6484 93.5699 17.6484C91.1992 17.6484 89.2773 19.504 89.2773 21.7929C89.2773 24.0818 91.1992 25.9373 93.5699 25.9373Z" fill="#8F9BB3"/>
<path d="M93.5699 24.3182C95.0139 24.3182 96.1845 23.188 96.1845 21.7939C96.1845 20.3997 95.0139 19.2695 93.5699 19.2695C92.126 19.2695 90.9554 20.3997 90.9554 21.7939C90.9554 23.188 92.126 24.3182 93.5699 24.3182Z" fill="white"/>
</g>
<defs>
<clipPath id="clip0_4304_37953">
<rect width="139" height="131" fill="white" transform="translate(0.5)"/>
</clipPath>
</defs>
</svg>
